<svg width="8" height="8" viewBox="0 0 8 8" fill="none" xmlns="http://www.w3.org/2000/svg">
<path d="M5.3492 4L7.5546 1.72568C7.82523 1.44659 7.82523 0.994091 7.5546 0.714773L7.06446 0.209318C6.79383 -0.0697727 6.35504 -0.0697727 6.08419 0.209318L3.87879 2.48364L1.67339 0.209318C1.40275 -0.0697727 0.963967 -0.0697727 0.693113 0.209318L0.202975 0.714773C-0.0676584 0.993864 -0.0676584 1.44636 0.202975 1.72568L2.40837 4L0.202975 6.27432C-0.0676584 6.55341 -0.0676584 7.00591 0.202975 7.28523L0.693113 7.79068C0.963747 8.06977 1.40275 8.06977 1.67339 7.79068L3.87879 5.51636L6.08419 7.79068C6.35482 8.06977 6.79383 8.06977 7.06446 7.79068L7.5546 7.28523C7.82523 7.00614 7.82523 6.55364 7.5546 6.27432L5.3492 4Z" fill="#888888"/>
</svg>
